<?xml version="1.0" standalone="no"?>
<!DOCTYPE svg PUBLIC "-//W3C//DTD SVG 20010904//EN"
 "http://www.w3.org/TR/2001/REC-SVG-20010904/DTD/svg10.dtd">
<svg version="1.0" xmlns="http://www.w3.org/2000/svg"
 width="700.000000pt" height="700.000000pt" viewBox="0 0 700.000000 700.000000"
 preserveAspectRatio="xMidYMid meet">
<metadata>
Created by potrace 1.11, written by Peter Selinger 2001-2013
</metadata>
<g transform="translate(0.000000,700.000000) scale(0.100000,-0.100000)"
fill="#000000" stroke="none">
<path d="M4485 6959 c-27 -4 -75 -10 -105 -13 -182 -23 -438 -131 -584 -247
-71 -57 -165 -148 -217 -211 -24 -29 -46 -55 -49 -58 -3 -3 -27 -37 -53 -76
-120 -182 -217 -463 -273 -784 -6 -35 -8 -51 -19 -145 -4 -27 -8 -61 -10 -75
-28 -195 -27 -903 0 -1132 31 -248 54 -364 111 -539 115 -357 325 -640 600
-806 107 -65 309 -141 420 -158 22 -3 75 -11 119 -19 51 -8 150 -12 265 -10
167 2 214 7 383 39 61 12 217 70 292 108 253 131 459 372 600 702 35 82 74
193 91 260 35 135 77 389 88 530 25 310 26 722 2 980 -14 145 -18 182 -21 195
-3 8 -7 33 -9 55 -3 22 -15 87 -26 145 -117 589 -431 1007 -881 1171 -94 34
-253 73 -344 85 -79 9 -317 11 -380 3z m347 -757 c139 -48 251 -150 342 -309
48 -86 102 -247 120 -363 17 -101 28 -181 32 -230 3 -30 7 -71 10 -90 9 -64
11 -634 3 -725 -14 -160 -19 -209 -24 -235 -3 -14 -7 -41 -10 -60 -20 -124
-62 -288 -89 -342 -9 -17 -16 -36 -16 -42 0 -6 -24 -51 -52 -99 -125 -208
-295 -309 -508 -301 -306 11 -536 257 -615 659 -45 234 -54 336 -55 705 -2
264 6 436 25 590 3 19 7 58 11 85 26 217 112 454 208 577 46 58 131 123 202
153 133 57 296 68 416 27z"/>
<path d="M1406 6846 c-35 -61 -73 -127 -84 -146 -10 -19 -49 -86 -86 -149 -37
-62 -80 -137 -96 -165 -15 -28 -53 -94 -83 -146 -30 -52 -54 -97 -52 -100 2
-3 199 -5 439 -5 l436 0 1 -25 c0 -14 0 -766 1 -1672 0 -1517 2 -1647 17
-1650 13 -3 712 -2 776 1 20 1 20 7 19 2079 -1 1142 -2 2080 -3 2083 0 3 -275
6 -611 6 l-610 0 -64 -111z"/>
<path d="M4370 2657 c-3 -3 -23 -7 -45 -10 -115 -16 -248 -90 -337 -186 -207
-226 -232 -531 -66 -807 57 -95 117 -170 268 -334 45 -49 89 -97 98 -108 9
-10 48 -53 86 -95 158 -176 199 -251 200 -367 1 -59 -4 -84 -21 -116 -66 -125
-209 -183 -354 -144 -48 13 -127 51 -162 78 -41 32 -148 145 -178 188 -16 24
-33 44 -37 44 -7 0 -178 -134 -291 -228 -24 -20 -51 -42 -58 -47 -33 -24 178
-256 314 -345 160 -106 319 -149 528 -145 135 3 142 4 234 31 250 72 466 313
498 559 20 149 -3 301 -66 438 -29 65 -151 254 -192 297 -12 14 -43 48 -68 75
-25 28 -93 102 -151 165 -203 220 -240 266 -270 335 -44 103 -27 188 50 244
130 94 325 18 495 -191 l31 -37 28 24 c28 24 137 121 180 160 12 11 48 42 78
69 l57 50 -32 40 c-50 64 -147 159 -207 204 -86 64 -223 126 -325 148 -39 8
-278 18 -285 11z"/>
<path d="M398 2602 c-17 -3 -20 -16 -34 -132 -3 -30 -8 -64 -10 -75 -2 -11 -9
-58 -15 -105 -6 -47 -12 -96 -15 -110 -2 -14 -7 -47 -10 -75 -3 -27 -8 -61
-10 -75 -2 -14 -8 -61 -14 -105 -6 -44 -13 -91 -15 -105 -2 -14 -7 -49 -10
-79 -4 -30 -8 -62 -10 -71 -2 -9 -6 -41 -10 -71 -3 -30 -10 -79 -15 -109 -5
-30 -12 -77 -15 -105 -3 -27 -8 -66 -11 -85 -17 -129 -24 -175 -34 -245 -5
-33 -12 -87 -16 -120 -3 -33 -8 -67 -9 -77 -2 -9 -6 -38 -10 -65 -4 -26 -8
-59 -10 -73 -2 -14 -7 -47 -10 -75 -4 -27 -10 -77 -15 -110 -5 -33 -12 -82
-15 -110 -3 -27 -8 -61 -10 -75 -2 -14 -7 -45 -10 -70 -3 -25 -10 -72 -15
-105 -5 -33 -10 -64 -10 -68 0 -10 1062 -4 1100 6 14 4 50 12 80 18 30 6 92
29 138 51 209 102 360 345 365 588 4 252 -86 442 -291 609 l-42 33 38 28 c148
107 242 288 247 475 6 196 -61 358 -206 496 -115 111 -264 166 -499 185 -87 7
-542 12 -572 6z m629 -452 c113 -22 183 -111 184 -233 1 -79 -7 -110 -42 -173
-46 -81 -106 -119 -207 -129 -34 -3 -183 -7 -226 -6 -16 1 -17 7 -11 66 3 35
8 74 10 87 5 28 31 234 41 323 4 34 10 75 13 82 3 6 186 -8 238 -17z m-77
-983 c184 -27 297 -138 308 -304 11 -170 -74 -281 -244 -318 -61 -14 -108 -16
-257 -12 -100 3 -182 6 -183 6 0 1 5 38 11 84 7 45 16 109 20 142 10 77 11 84
24 180 7 44 14 94 16 110 2 17 7 52 11 79 l7 49 131 -7 c72 -3 142 -7 156 -9z"/>
<path d="M2196 2590 c-3 -8 -8 -42 -12 -75 -4 -33 -8 -62 -9 -65 0 -3 -5 -36
-9 -75 -5 -38 -10 -77 -11 -86 -2 -9 -6 -40 -10 -70 -3 -30 -8 -61 -10 -69 -2
-8 -6 -40 -10 -71 -3 -31 -7 -65 -9 -75 -4 -21 -14 -96 -22 -164 -3 -25 -7
-56 -9 -70 -2 -14 -7 -43 -10 -65 -2 -22 -14 -107 -25 -190 -11 -82 -23 -168
-26 -190 -3 -22 -9 -67 -14 -100 -5 -33 -11 -87 -15 -120 -4 -32 -8 -62 -10
-65 -2 -3 -6 -34 -10 -70 -3 -36 -8 -72 -10 -80 -2 -8 -7 -37 -10 -65 -3 -27
-9 -81 -15 -120 -5 -38 -12 -90 -15 -115 -12 -86 -16 -115 -20 -140 -2 -14 -7
-43 -9 -65 -3 -22 -12 -93 -21 -159 -9 -65 -14 -121 -11 -124 8 -8 1345 -6
1353 1 3 4 8 19 9 34 2 16 13 105 25 198 23 187 22 176 20 190 -1 7 -144 10
-428 10 -236 -1 -434 1 -441 3 -9 3 -12 16 -8 41 3 20 8 56 11 81 3 25 8 56
10 70 2 14 7 49 10 79 4 30 8 61 10 70 6 33 15 99 30 216 3 28 9 62 11 77 l6
28 440 2 c430 3 441 4 444 23 2 10 8 60 14 110 6 49 13 101 15 115 2 14 6 50
10 80 3 30 8 67 11 83 4 18 1 27 -8 28 -7 0 -204 1 -438 2 l-425 2 1 30 c2 35
12 119 19 149 3 12 7 41 9 66 3 25 12 91 21 147 8 57 15 107 15 113 0 7 151
10 439 10 l438 0 7 53 c14 115 16 133 21 162 9 67 19 162 20 194 l0 35 -668 0
c-585 1 -668 -1 -671 -14z"/>
<path d="M5440 2600 c-4 -3 -11 -27 -14 -55 -4 -27 -13 -95 -21 -150 -8 -55
-17 -127 -20 -160 -4 -33 -7 -64 -8 -69 -1 -5 114 -9 269 -10 268 0 272 0 269
-21 -2 -11 -9 -60 -15 -110 -7 -49 -14 -99 -15 -110 -2 -11 -11 -76 -20 -145
-9 -69 -18 -136 -20 -150 -2 -14 -7 -50 -10 -80 -4 -30 -9 -63 -11 -74 -2 -10
-5 -37 -8 -60 -3 -22 -10 -75 -16 -116 -5 -41 -13 -93 -15 -115 -3 -22 -8 -51
-10 -65 -2 -14 -7 -50 -10 -80 -3 -30 -8 -66 -10 -80 -2 -14 -7 -45 -10 -70
-4 -25 -8 -56 -10 -70 -2 -14 -16 -113 -30 -220 -30 -222 -34 -251 -41 -300
-3 -19 -7 -51 -9 -70 -3 -19 -7 -55 -10 -80 l-6 -45 225 0 c137 0 229 4 235
10 5 6 12 37 16 70 3 33 10 87 15 120 5 33 12 80 15 105 6 47 14 108 20 150 4
24 14 102 20 145 1 11 5 40 9 65 23 165 36 262 41 305 4 28 8 61 10 75 2 14 9
61 15 105 6 44 13 96 16 115 4 19 6 42 6 50 0 8 4 36 9 63 5 26 11 77 15 114
3 37 7 70 9 73 2 3 6 30 10 60 3 30 8 66 10 80 2 14 9 63 15 110 6 47 13 96
15 110 2 14 6 47 10 75 3 27 9 52 11 55 3 3 112 6 242 6 131 1 247 2 258 3 18
1 22 9 28 64 4 34 8 76 11 92 11 82 28 229 29 264 l1 25 -753 0 c-415 1 -757
-1 -762 -4z"/>
</g>
</svg>
