<?xml version="1.0" standalone="no"?>
<!DOCTYPE svg PUBLIC "-//W3C//DTD SVG 20010904//EN"
 "http://www.w3.org/TR/2001/REC-SVG-20010904/DTD/svg10.dtd">
<svg version="1.0" xmlns="http://www.w3.org/2000/svg"
 width="260.000000pt" height="260.000000pt" viewBox="0 0 260.000000 260.000000"
 preserveAspectRatio="xMidYMid meet">
<metadata>
Created by potrace 1.11, written by Peter Selinger 2001-2013
</metadata>
<g transform="translate(0.000000,260.000000) scale(0.100000,-0.100000)"
fill="#000000" stroke="none">
<path d="M707 1847 c-137 -413 -251 -759 -254 -767 -3 -8 -7 -19 -9 -25 -1 -5
-45 -138 -98 -295 l-95 -285 -98 -5 -97 -5 -1 -215 c0 -118 1 -223 3 -233 4
-16 34 -17 496 -15 l491 3 0 232 0 233 -138 0 c-107 0 -138 3 -135 12 3 7 24
74 47 148 24 74 49 153 56 175 l13 40 399 3 400 2 18 -62 c10 -35 36 -117 57
-182 21 -66 38 -123 38 -128 0 -4 -57 -8 -128 -8 l-127 0 0 -233 0 -232 493
-3 c270 -1 492 1 493 5 3 26 4 440 1 451 -3 8 -31 12 -96 12 l-92 0 -48 147
c-26 82 -99 308 -163 503 -63 195 -139 432 -170 525 -30 94 -86 265 -123 380
-38 116 -92 282 -120 370 -28 88 -55 170 -60 183 l-10 22 -347 0 -348 0 -248
-753z m672 -12 c49 -159 131 -421 156 -502 l13 -43 -263 0 -263 0 13 43 c48
152 229 738 237 767 l11 35 23 -70 c12 -38 45 -142 73 -230z"/>
</g>
</svg>
