<svg id="Layer_1" data-name="Layer 1" xmlns="http://www.w3.org/2000/svg" viewBox="0 0 29 29"><defs><style>.cls-1{fill:#0e0e0e;}.cls-2{fill:#fff;}</style></defs><title>1Social Media Icons-04</title><path class="cls-1" d="M29.5,15A14.5,14.5,0,1,1,15,.5,14.5,14.5,0,0,1,29.5,15Z" transform="translate(-0.5 -0.5)"/><path class="cls-2" d="M23.36,18.15a2.63,2.63,0,0,1-2.64,2.63H9.27a2.64,2.64,0,0,1-2.64-2.63V11.87A2.65,2.65,0,0,1,9.27,9.22H20.72a2.65,2.65,0,0,1,2.64,2.65Z" transform="translate(-0.5 -0.5)"/><polygon class="cls-1" points="17.6 14.7 12.5 17.91 12.5 11.5 17.6 14.7"/></svg>