<svg id="Layer_1" data-name="Layer 1" xmlns="http://www.w3.org/2000/svg" viewBox="0 0 29 29"><defs><style>.cls-1{fill:#0e0e0e;}.cls-1,.cls-2{fill-rule:evenodd;}.cls-2{fill:#fff;}</style></defs><title>1Social Media Icons-02</title><path class="cls-1" d="M29.5,15A14.5,14.5,0,1,1,15,.5,14.5,14.5,0,0,1,29.5,15Z" transform="translate(-0.5 -0.5)"/><path class="cls-2" d="M5.39,22.31a9,9,0,0,0,4.47-.77,7.67,7.67,0,0,0,1.79-1.06A4.15,4.15,0,0,1,9.81,20a4.26,4.26,0,0,1-2.06-2.26c-.1-.25-.1-.25.18-.22a3.43,3.43,0,0,0,1.56-.11,5.14,5.14,0,0,1-1-.39,4.26,4.26,0,0,1-2.31-3.65c0-.19,0-.21.21-.12a4,4,0,0,0,1.69.44A7.15,7.15,0,0,1,7.32,13a4.37,4.37,0,0,1-.67-4.85c.1-.21.15-.21.3,0a12.2,12.2,0,0,0,7.46,4.16c.32,0,.64.06,1,.11s.24-.07.2-.23a4.29,4.29,0,0,1,7.19-3.84.43.43,0,0,0,.46.11,8.45,8.45,0,0,0,2.26-.89l.18-.1a4.36,4.36,0,0,1-1.81,2.36,8.56,8.56,0,0,0,2.3-.61.28.28,0,0,1-.1.24,8.48,8.48,0,0,1-1.77,1.82.33.33,0,0,0-.16.35,12.44,12.44,0,0,1-3,8.36A11.39,11.39,0,0,1,14,24a12.3,12.3,0,0,1-8.52-1.66A.2.2,0,0,0,5.39,22.31Z" transform="translate(-0.5 -0.5)"/></svg>