<svg id="Layer_1" data-name="Layer 1" xmlns="http://www.w3.org/2000/svg" viewBox="0 0 174 102.29"><defs><style>.cls-1{fill:#231f20;}.cls-2{fill:#da1c5c;}</style></defs><title>1WEBSITE LOGO</title><path class="cls-1" d="M8,1.1H27.48V67.29H14.57V12.69H.5Z" transform="translate(-0.5 -0.85)"/><path class="cls-1" d="M76.89,33.94a11.37,11.37,0,0,0,3.84-4.16,10.94,10.94,0,0,0,1.33-5.27,11.17,11.17,0,0,0-1.88-6.24,11.3,11.3,0,0,0-5-4.26q-3.07-1.37-9.42-1.37H62.15c2.7.33,4.95,1.93,6.73,4.77a14.48,14.48,0,0,1,1.42,3.2,38.19,38.19,0,0,1,1.45,8.83c.11,1.71.17,3.58.17,5.6,0,1.44,0,2.8-.1,4.09a40.15,40.15,0,0,1-1.63,10.23A16.28,16.28,0,0,1,68.54,53a8.61,8.61,0,0,1-6.33,4.38h6c3.53,0,6.22-.47,8.09-1.41a12.52,12.52,0,0,0,6.6-11A12.87,12.87,0,0,0,76.89,33.94Z" transform="translate(-0.5 -0.85)"/><path class="cls-1" d="M82,15A22.23,22.23,0,0,0,73.62,4.33,23.33,23.33,0,0,0,60.73.85q-11.52,0-18,8.81-5.8,8-5.8,25.86,0,12.78,3,19.7a22.41,22.41,0,0,0,8.22,10.31,23.41,23.41,0,0,0,13,3.39q7.71,0,12.77-3.37T81.93,55q3-7.19,3-20.09T82,15ZM81,51.58a12,12,0,0,1-4.7,4.4c-1.87.94-4.56,1.41-8.09,1.41H59.83a9.22,9.22,0,0,1-6.5-4.2,3.93,3.93,0,0,1-.29-.42q-3.09-4.68-3.09-17,0-9.43,1.35-14.32c.9-3.26,2.19-5.56,3.89-6.89a9.05,9.05,0,0,1,3.65-1.77c.32-.07.65-.13,1-.17h6q6.35,0,9.42,1.37a11.3,11.3,0,0,1,5,4.26,11.17,11.17,0,0,1,1.88,6.24,10.94,10.94,0,0,1-1.33,5.27,11.37,11.37,0,0,1-3.84,4.16,12.87,12.87,0,0,1,6,11.07A12,12,0,0,1,81,51.58Z" transform="translate(-0.5 -0.85)"/><path class="cls-2" d="M76.89,33.94a11.37,11.37,0,0,0,3.84-4.16,10.94,10.94,0,0,0,1.33-5.27,11.17,11.17,0,0,0-1.88-6.24,11.3,11.3,0,0,0-5-4.26q-3.07-1.37-9.42-1.37h-6c-.33,0-.66.1-1,.17L53.33,53.19a9.22,9.22,0,0,0,6.5,4.2H68.2c3.53,0,6.22-.47,8.09-1.41a12.52,12.52,0,0,0,6.6-11A12.87,12.87,0,0,0,76.89,33.94ZM71.12,20.79a3.71,3.71,0,0,1,2,1.52A4.81,4.81,0,0,1,73.83,25,5.6,5.6,0,0,1,73,28a5,5,0,0,1-1.23,1.41,4.1,4.1,0,0,1-.81.46,13.61,13.61,0,0,1-4.58.51h-1.5l1.35-10a29.5,29.5,0,0,1,4.09.21A5.15,5.15,0,0,1,71.12,20.79Zm1.74,27.35a5.85,5.85,0,0,1-2.67,1.22,12.9,12.9,0,0,1-2.85.27l-5-.18L63.85,38a25.87,25.87,0,0,1,6.81.64,5.36,5.36,0,0,1,1.16.54,5.68,5.68,0,0,1,2.77,4.93A5.1,5.1,0,0,1,72.86,48.14Z" transform="translate(-0.5 -0.85)"/><path class="cls-2" d="M91,12.64h24l-1,7.94H98.46l-1.29,9.25h15.69l-1,7.88H96.08L94.43,49.57H110.3l-1,7.82H84.93Z" transform="translate(-0.5 -0.85)"/><path class="cls-2" d="M143.9,18.88l-6.11,5.41c-2.52-3.24-4.86-4.87-7-4.87a3.84,3.84,0,0,0-2.67,1,3,3,0,0,0-1.07,2.3,5.36,5.36,0,0,0,1,2.77,68.71,68.71,0,0,0,5.9,6.72,45,45,0,0,1,3.44,3.93,20.45,20.45,0,0,1,2.84,5,13.41,13.41,0,0,1,.87,4.73,12,12,0,0,1-3.83,9,13.68,13.68,0,0,1-9.82,3.65q-9.14,0-14.87-8.67l6.44-5.2q3.9,5.93,8.43,5.93a5.08,5.08,0,0,0,3.63-1.4,4.5,4.5,0,0,0,1.48-3.38,6.45,6.45,0,0,0-.9-3.16,41.42,41.42,0,0,0-5.13-6.09,44.65,44.65,0,0,1-5.86-7.12,12.67,12.67,0,0,1-1.89-6.38,11.53,11.53,0,0,1,11.89-11.53Q138.55,11.52,143.9,18.88Z" transform="translate(-0.5 -0.85)"/><path class="cls-2" d="M147.19,12.64H174.5l-1,8H164.2l-5,36.78h-8.34l5-36.78h-9.7Z" transform="translate(-0.5 -0.85)"/><path d="M1,70.33H7l4.59,20.44,5.67-20.44h5L28,90.77l4.55-20.44H38.5l-7.15,32h-5.8L19.7,81.65,14,102.34H8.22Z" transform="translate(-0.5 -0.85)"/><path d="M41.83,70.33H59.16v6H47.83v5.78H59.16v5.86H47.83v8.42H59.16v6H41.83Z" transform="translate(-0.5 -0.85)"/><path d="M62.45,102.34v-32h5a25.52,25.52,0,0,1,6.36.57,8.54,8.54,0,0,1,4.54,2.83A7.49,7.49,0,0,1,80,78.6a7.15,7.15,0,0,1-.76,3.32,8.61,8.61,0,0,1-2.5,2.8A9.89,9.89,0,0,1,81,88.14,8.7,8.7,0,0,1,82.33,93,9.13,9.13,0,0,1,81,97.93a8.78,8.78,0,0,1-3.57,3.31,13.47,13.47,0,0,1-6,1.1Zm6-26.2v6.75h1.33A4.87,4.87,0,0,0,73.1,82a3.21,3.21,0,0,0,1.07-2.54,3,3,0,0,0-1-2.38,4.63,4.63,0,0,0-3.1-.89Zm0,12.19v8.2H70q3.76,0,5.08-1a3.25,3.25,0,0,0,1.31-2.79,3.91,3.91,0,0,0-1.54-3.26q-1.55-1.2-5.11-1.2Z" transform="translate(-0.5 -0.85)"/><path d="M103,74.69l-4.48,4q-2.35-3.32-4.8-3.31a2.92,2.92,0,0,0-2,.64A1.88,1.88,0,0,0,91,77.45,2.48,2.48,0,0,0,91.51,79a41.84,41.84,0,0,0,4.43,4.12q3.47,2.91,4.2,3.67a12.8,12.8,0,0,1,2.6,3.58,9.05,9.05,0,0,1,.77,3.73,8.59,8.59,0,0,1-2.7,6.51,9.82,9.82,0,0,1-7,2.57,10.4,10.4,0,0,1-5.91-1.68,13.18,13.18,0,0,1-4.31-5.26l5.08-3.09q2.3,4.25,5.28,4.24a3.85,3.85,0,0,0,2.61-.91,2.73,2.73,0,0,0,1.06-2.11,3.61,3.61,0,0,0-.8-2.18,22.75,22.75,0,0,0-3.52-3.33q-5.19-4.26-6.71-6.58A8.42,8.42,0,0,1,85,77.62a7.58,7.58,0,0,1,2.52-5.71,8.69,8.69,0,0,1,6.21-2.38,9.72,9.72,0,0,1,4.53,1.11A16.55,16.55,0,0,1,103,74.69Z" transform="translate(-0.5 -0.85)"/><path d="M105.57,70.33h6v32h-6Z" transform="translate(-0.5 -0.85)"/><path d="M115,70.33h17.55v6h-5.79v26h-6.13v-26H115Z" transform="translate(-0.5 -0.85)"/><path d="M135.76,70.33H153.1v6H141.76v5.78H153.1v5.86H141.76v8.42H153.1v6H135.76Z" transform="translate(-0.5 -0.85)"/><path d="M173.94,74.69l-4.48,4q-2.36-3.32-4.8-3.31a2.92,2.92,0,0,0-1.95.64,1.88,1.88,0,0,0-.75,1.45A2.48,2.48,0,0,0,162.5,79a41.84,41.84,0,0,0,4.43,4.12q3.47,2.91,4.2,3.67a12.8,12.8,0,0,1,2.6,3.58,9.05,9.05,0,0,1,.77,3.73,8.59,8.59,0,0,1-2.7,6.51,9.82,9.82,0,0,1-7.05,2.57,10.4,10.4,0,0,1-5.91-1.68,13.18,13.18,0,0,1-4.31-5.26l5.08-3.09q2.29,4.25,5.28,4.24a3.83,3.83,0,0,0,2.61-.91,2.73,2.73,0,0,0,1.06-2.11,3.61,3.61,0,0,0-.8-2.18,22.28,22.28,0,0,0-3.52-3.33q-5.19-4.26-6.71-6.58A8.5,8.5,0,0,1,156,77.62a7.58,7.58,0,0,1,2.52-5.71,8.69,8.69,0,0,1,6.21-2.38,9.72,9.72,0,0,1,4.53,1.11A16.55,16.55,0,0,1,173.94,74.69Z" transform="translate(-0.5 -0.85)"/></svg>