<?xml version="1.0" encoding="utf-8"?>
<!-- Generator: Adobe Illustrator 22.1.0, SVG Export Plug-In . SVG Version: 6.00 Build 0)  -->
<svg version="1.1" id="Layer_1" xmlns="http://www.w3.org/2000/svg" xmlns:xlink="http://www.w3.org/1999/xlink" x="0px" y="0px"
	 viewBox="0 0 260 260" style="enable-background:new 0 0 260 260;" xml:space="preserve">
<style type="text/css">
	.st0{fill:#DA1C5C;}
</style>
<g>
	<path d="M54.6,1.6h45.5v154.9H69.9V32.1H37L54.6,1.6z"/>
	<path d="M172.5,1.2c11.7,0,21.7,2.7,30.1,8.1c8.4,5.4,14.9,13.7,19.5,24.9c4.6,11.2,6.9,26.7,6.9,46.6c0,20.1-2.3,35.8-7,47
		c-4.7,11.2-10.9,19.4-18.8,24.7c-7.9,5.3-17.8,7.9-29.9,7.9c-12,0-22.1-2.6-30.3-7.9c-8.2-5.3-14.6-13.3-19.2-24.1
		c-4.6-10.8-6.9-26.1-6.9-46c0-27.8,4.5-48,13.6-60.4C140.6,8.1,154.6,1.2,172.5,1.2z M173.2,28.6c-5.1,0-9.7,1.6-13.7,4.7
		c-4,3.1-7,8.5-9.1,16.1c-2.1,7.6-3.1,18.8-3.1,33.5c0,19.2,2.4,32.4,7.2,39.7c4.8,7.3,11,11,18.7,11c7.4,0,13.2-3.5,17.6-10.4
		c5.3-8.4,7.9-22.4,7.9-42c0-19.9-2.4-33.6-7.1-41.2C186.9,32.4,180.7,28.6,173.2,28.6z"/>
</g>
<g>
	<path class="st0" d="M14.2,163.3h14.4c8.8,0,15.3,0.9,19.6,2.8c4.3,1.9,7.7,4.9,10.3,8.9c2.6,4,3.9,8.3,3.9,13
		c0,3.9-0.9,7.5-2.8,11c-1.8,3.4-4.5,6.3-8,8.6c8.3,5.8,12.5,13.5,12.5,23c0,5-1.3,9.5-3.9,13.7c-2.6,4.1-5.9,7.2-9.8,9.1
		c-3.9,2-9.5,2.9-16.8,2.9H1.5L14.2,163.3z M21.3,240l10.5,0.4c5.2,0,9.1-1,11.5-3.1c2.4-2.1,3.6-4.9,3.6-8.5c0-2.6-0.7-5-2.2-7
		c-1.5-2.1-3.5-3.5-5.9-4.4c-2.5-0.8-7.2-1.3-14.2-1.3L21.3,240z M26.6,200.3h3.1c4.7,0,7.8-0.3,9.5-1c1.7-0.7,3.1-2,4.2-3.9
		c1.2-1.9,1.7-4,1.7-6.3c0-2.2-0.5-4-1.6-5.6c-1-1.6-2.4-2.6-4.1-3.2c-1.7-0.5-5.1-0.8-10.2-0.8L26.6,200.3z"/>
	<path class="st0" d="M81.6,163.3h50l-2.1,16.5H97l-2.7,19.2H127l-2.1,16.4H92.1l-3.4,24.7h33l-2.1,16.3H69L81.6,163.3z"/>
	<path class="st0" d="M193.8,176.3l-12.7,11.3c-5.2-6.8-10.1-10.1-14.6-10.1c-2.2,0-4.1,0.7-5.6,2c-1.5,1.3-2.2,2.9-2.2,4.8
		c0,1.7,0.7,3.7,2,5.8c1.3,2.1,5.4,6.8,12.3,14c3.6,3.8,6,6.6,7.1,8.2c2.7,3.7,4.7,7.2,5.9,10.4c1.2,3.2,1.8,6.5,1.8,9.8
		c0,7.5-2.7,13.7-8,18.8c-5.3,5.1-12.1,7.6-20.4,7.6c-12.6,0-22.9-6-30.9-18L142,230c5.4,8.2,11.2,12.3,17.5,12.3c3,0,5.5-1,7.5-2.9
		c2-1.9,3.1-4.3,3.1-7c0-2.2-0.6-4.3-1.9-6.6c-1.2-2.2-4.8-6.5-10.6-12.7c-6.2-6.5-10.3-11.5-12.2-14.8c-2.6-4.5-3.9-8.9-3.9-13.3
		c0-5.7,1.9-10.9,5.6-15.4c4.7-5.7,11.1-8.5,19.1-8.5C177.2,161,186.4,166.1,193.8,176.3z"/>
	<path class="st0" d="M201.8,163.3h56.7l-2,16.6h-19.4l-10.4,76.6h-17.3l10.4-76.6h-20.2L201.8,163.3z"/>
</g>
</svg>
