<svg id="Layer_1" data-name="Layer 1" xmlns="http://www.w3.org/2000/svg" viewBox="0 0 29 29"><defs><style>.cls-1{fill:#0e0e0e;}.cls-2{fill:#fff;}</style></defs><title>1Social Media Icons-01</title><path class="cls-1" d="M29.5,15A14.5,14.5,0,1,1,15,.5,14.5,14.5,0,0,1,29.5,15Z" transform="translate(-0.5 -0.5)"/><path class="cls-2" d="M10.32,10.88h2v-1a7.08,7.08,0,0,1,.36-2.61A2.9,2.9,0,0,1,14.1,5.85a5.06,5.06,0,0,1,2.52-.55,10.22,10.22,0,0,1,3.05.47l-.49,2.55a7.28,7.28,0,0,0-1.68-.21,1.48,1.48,0,0,0-1.14.38A2.07,2.07,0,0,0,16,9.91v1h2.73v2.89H16V24.7H12.36V13.77h-2Z" transform="translate(-0.5 -0.5)"/></svg>