<?xml version="1.0" standalone="no"?>
<!DOCTYPE svg PUBLIC "-//W3C//DTD SVG 20010904//EN"
 "http://www.w3.org/TR/2001/REC-SVG-20010904/DTD/svg10.dtd">
<svg version="1.0" xmlns="http://www.w3.org/2000/svg"
 width="525.000000pt" height="525.000000pt" viewBox="0 0 525.000000 525.000000"
 preserveAspectRatio="xMidYMid meet">
<metadata>
Created by potrace 1.11, written by Peter Selinger 2001-2013
</metadata>
<g transform="translate(0.000000,525.000000) scale(0.100000,-0.100000)"
fill="#000000" stroke="none">
<path d="M2535 5096 c-42 -18 -92 -78 -106 -127 -14 -46 -2 -113 29 -154 73
-97 224 -97 298 1 26 33 29 45 29 109 0 63 -3 76 -29 109 -50 66 -149 94 -221
62z"/>
<path d="M1922 5009 c-74 -37 -117 -138 -92 -214 37 -111 152 -163 256 -116
104 47 139 196 67 281 -57 68 -151 88 -231 49z"/>
<path d="M3122 5009 c-82 -41 -120 -139 -88 -224 78 -202 370 -140 354 76 -10
133 -145 208 -266 148z"/>
<path d="M1375 4781 c-129 -58 -149 -214 -41 -309 112 -98 296 -15 296 135 0
89 -31 140 -105 174 -51 24 -99 24 -150 0z"/>
<path d="M3682 4779 c-89 -44 -126 -154 -82 -244 66 -136 262 -139 330 -4 36
69 19 171 -37 221 -54 50 -143 61 -211 27z"/>
<path d="M895 4416 c-42 -18 -92 -78 -105 -126 -34 -126 84 -250 214 -226 41
8 92 41 119 78 22 29 34 118 23 162 -9 36 -65 96 -103 112 -41 17 -109 17
-148 0z"/>
<path d="M4163 4411 c-63 -29 -98 -88 -98 -166 0 -109 71 -180 180 -180 78 0
137 35 166 98 74 164 -84 322 -248 248z"/>
<path d="M525 3937 c-37 -17 -93 -79 -101 -113 -4 -14 -4 -49 -2 -79 10 -125
138 -198 253 -146 177 80 130 337 -63 348 -34 2 -69 -2 -87 -10z"/>
<path d="M4535 3933 c-48 -25 -73 -53 -91 -99 -61 -159 101 -307 254 -233 103
50 133 191 60 284 -46 59 -157 83 -223 48z"/>
<path d="M2989 3915 c-271 -54 -509 -227 -655 -475 l-44 -75 0 253 0 252 -635
0 -635 0 2 -477 3 -478 138 -3 137 -3 0 -804 0 -805 495 0 495 0 0 252 0 252
46 -74 c153 -249 350 -398 614 -466 59 -15 107 -19 230 -18 137 1 165 4 245
28 415 124 687 483 771 1016 26 164 24 460 -5 625 -97 553 -410 921 -851 1001
-94 17 -264 16 -351 -1z m396 -270 c208 -69 377 -238 475 -475 38 -92 75 -229
91 -341 17 -120 15 -394 -4 -509 -62 -371 -228 -636 -472 -755 -281 -138 -592
-81 -811 147 -136 141 -225 335 -271 588 -23 131 -23 437 0 572 75 431 304
719 632 794 95 22 262 12 360 -21z m-1345 -1060 l0 -1035 -245 0 -245 0 -2
808 -3 807 -137 3 -138 3 0 224 0 225 385 0 385 0 0 -1035z"/>
<path d="M3083 3186 c-79 -36 -163 -167 -197 -307 -45 -184 -41 -441 10 -615
56 -196 148 -294 273 -294 188 0 311 243 311 615 0 283 -68 490 -190 577 -38
28 -55 33 -110 35 -41 2 -77 -2 -97 -11z"/>
<path d="M282 3369 c-108 -54 -129 -213 -40 -296 28 -26 89 -53 120 -53 87 0
169 64 186 145 15 71 -2 127 -55 177 -55 53 -138 63 -211 27z"/>
<path d="M4758 3370 c-71 -38 -106 -112 -94 -195 14 -91 116 -165 208 -151
163 26 213 232 82 333 -49 37 -141 43 -196 13z"/>
<path d="M220 2779 c-32 -13 -78 -56 -96 -92 -20 -38 -20 -117 1 -161 43 -90
149 -129 240 -87 137 62 148 252 19 327 -44 26 -117 31 -164 13z"/>
<path d="M4845 2775 c-65 -36 -104 -98 -105 -168 0 -98 85 -184 186 -186 44
-1 125 43 153 84 52 77 32 193 -44 251 -47 35 -142 45 -190 19z"/>
<path d="M275 2166 c-107 -64 -120 -220 -25 -300 79 -66 202 -54 264 27 68 89
43 221 -52 275 -55 31 -134 30 -187 -2z"/>
<path d="M4765 2174 c-45 -23 -66 -45 -86 -89 -48 -103 9 -223 121 -256 80
-24 173 19 211 99 44 89 7 199 -82 244 -42 22 -124 23 -164 2z"/>
<path d="M506 1606 c-81 -49 -111 -158 -66 -246 55 -108 201 -129 290 -40 68
68 75 163 19 242 -49 68 -168 90 -243 44z"/>
<path d="M4524 1611 c-76 -47 -112 -142 -85 -224 16 -46 79 -103 131 -117 159
-43 290 144 197 280 -38 57 -70 74 -145 78 -53 2 -73 -1 -98 -17z"/>
<path d="M878 1130 c-93 -50 -122 -180 -59 -269 70 -98 225 -100 299 -3 38 50
43 144 11 202 -47 83 -163 116 -251 70z"/>
<path d="M4165 1136 c-58 -26 -105 -101 -105 -168 1 -76 64 -157 138 -178 46
-12 48 -12 95 1 47 13 106 63 123 106 17 39 18 101 3 140 -13 34 -55 80 -91
99 -34 18 -123 18 -163 0z"/>
<path d="M1392 779 c-47 -14 -109 -80 -122 -130 -22 -80 18 -172 90 -209 89
-45 202 -13 249 70 32 58 27 152 -11 202 -46 60 -135 89 -206 67z"/>
<path d="M3707 776 c-50 -18 -85 -51 -108 -101 -24 -51 -24 -99 0 -151 28 -62
80 -97 152 -102 72 -5 108 8 153 59 38 41 51 88 43 150 -14 108 -138 183 -240
145z"/>
<path d="M1966 548 c-133 -28 -188 -193 -100 -298 37 -43 80 -63 139 -64 104
-1 185 79 185 184 0 120 -104 203 -224 178z"/>
<path d="M3171 548 c-136 -24 -195 -190 -105 -298 107 -127 324 -52 324 113 0
125 -96 207 -219 185z"/>
<path d="M2561 470 c-97 -24 -158 -130 -131 -228 22 -82 92 -134 180 -134 56
1 93 18 131 59 39 42 49 66 49 124 0 119 -113 208 -229 179z"/>
</g>
</svg>
